<svg id="Layer_4" data-name="Layer 4" xmlns="http://www.w3.org/2000/svg" viewBox="0 0 800 800"><defs><style>.cls-1{fill:#fff;}</style></defs><title>svg_icon</title><path class="cls-1" d="M348.19,400.06,216.71,625,186.78,546c-18.73-3.15-59.14-11.06-82.47-23.78L42.82,583.75C9,617.54,33,675.32,80.74,675.32H386.38Z"/><path class="cls-1" d="M485.48,186V311.66L671,497.22a389.53,389.53,0,0,1-69.11,19.57l-9.09,1.46-12.66,32.84L436.64,303.94,401.9,554.34,367.2,304.15,222.89,551l-12.83-33.82-9.35-1.34c-19.58-2.8-52.29-9.52-72.38-17.6L316.52,310.05l1.3-123.57a8,8,0,0,1,8.1-7.91l61,9.31a197.12,197.12,0,0,0,90.64-7.37l.21-.07C482,179.06,485.48,181.58,485.48,186Z"/><path class="cls-1" d="M757.57,583.75l-62-62a426,426,0,0,1-79.4,24.9L586,624.88,455.58,400.27,417.43,675.32H719.65C767.43,675.32,791.36,617.54,757.57,583.75Z"/><circle class="cls-1" cx="432" cy="136" r="12"/><circle class="cls-1" cx="407" cy="166" r="7"/><circle class="cls-1" cx="369.5" cy="128.5" r="24.5"/></svg>