<!-- Generator: Adobe Illustrator 24.0.2, SVG Export Plug-In . SVG Version: 6.00 Build 0)  -->
<svg id="logo" xmlns="http://www.w3.org/2000/svg"viewBox="0 0 800 800" >
<g id="Layer_3" class="st0">
	<g class="st1">
		<path class="st4" d="M182,252c-0.03,0-0.05,0-0.09,0c-0.07,0-0.15,0-0.25,0C181.78,252,181.89,252,182,252z"/>
		<path class="st4" d="M-51,253h6.42l5.97,17.32L44.11,139L67.34,284L87.5,138.07l80.69,129.93c4.28-10.39,6.99-15.73,13.31-16
			c3.83-0.48,19.14-3.83,30.92-8.2L110.09,142.07c-2.61-2.6-4.05-6.15-3.98-9.83L107,83H24v46.45c0,3.56-1.4,6.97-3.9,9.5
			L-83.43,243.69C-72.63,248.26-59.29,253-51,253z"/>
		<path class="st4" d="M182.38,269.98c0.54-0.02,1.07-0.08,1.55-0.19C183.26,269.89,182.74,269.95,182.38,269.98z"/>
		<path class="st4" d="M33.89,189l-77.28,122.68l-14.2-41.19c-13.22-1.87-29.38-8.5-39.4-13.09l-49.71,50.29
			c-0.18,0.18-0.36,0.35-0.55,0.53c-1.74,1.59-11.8,11.5-8.07,24.73c0.17,0.6,0.32,1.2,0.42,1.81c0.52,3.17,3.68,15.11,21.9,14.24
			H59.53L33.89,189z"/>
		<path class="st4" d="M275.39,306.42l-49.21-48.93c-12.74,6.04-30.09,10.1-38.85,11.72c-2.15,4.52-5.94,13.94-8.9,21.91
			l-6.39,17.24L98.5,189.93L76.53,349H259c0,0,15.39,0,22.11-8.75c1.27-1.65,2.03-3.63,2.36-5.68c0.28-1.67,0.58-4.08,0.65-6.83
			C284.32,319.75,281.06,312.06,275.39,306.42z"/>
	</g>
</g>
<g id="Layer_4">
	<g>
		<path class="st4" d="M348.19,400.06l-131.48,224.9l-29.93-78.92c-18.73-3.15-59.15-11.06-82.47-23.79l-61.5,61.5
			c-33.79,33.79-9.86,91.56,37.93,91.56h305.64L348.19,400.06z"/>
		<path class="st4" d="M485.48,186.02v125.64l185.56,185.56c-36.98,14.28-68.76,19.52-69.11,19.57l-9.09,1.46l-12.66,32.84
			L436.64,303.94l-34.74,250.4L367.2,304.15L222.89,551l-12.83-33.82l-9.35-1.34c-19.58-2.8-52.29-9.52-72.38-17.61l188.19-188.19
			l1.29-123.57c0.05-4.43,3.68-7.97,8.1-7.92l61.02,9.32c30.38,4.64,61.42,2.11,90.64-7.38l0.21-0.07
			C482.02,179.06,485.48,181.58,485.48,186.02z"/>
		<path class="st4" d="M757.57,583.75l-61.99-61.99c-33.41,14.36-64.49,21.82-79.4,24.89l-30.15,78.22l-130.44-224.6l-38.16,275.04
			h302.22C767.43,675.32,791.36,617.54,757.57,583.75z"/>
	</g>
	<circle class="st4" cx="432" cy="136" r="12"/>
	<circle class="st4" cx="407" cy="166" r="7"/>
	<circle class="st4" cx="369.5" cy="128.5" r="24.5"/>
</g>
</svg>
